<?xml version="1.0" encoding="UTF-8" standalone="no"?>
<!DOCTYPE svg PUBLIC "-//W3C//DTD SVG 1.1//EN"
"http://www.w3.org/Graphics/SVG/1.1/DTD/svg11.dtd">
<svg viewBox="0 0 935 1210" version="1.1" xmlns="http://www.w3.org/2000/svg" xmlns:xlink="http://www.w3.org/1999/xlink">
<defs>
<style type="text/css"><![CDATA[
.g0_1{
fill: none;
stroke: #000000;
stroke-width: 1.32;
stroke-linecap: butt;
stroke-linejoin: miter;
}
.g1_1{
}
]]></style>
</defs>
<image preserveAspectRatio="none" x="75" y="33" width="778" height="1093" xlink:href="img/1.png" />
<path d="M729.4,189.9V302.1" class="g0_1" />
<path d="M155.9,343h2.6V304.7h-2.6V343Z" class="g1_1" />
<path d="M254.9,304.7v35.6" class="g0_1" />
<path d="M527.1,343h2.7V189.9h-2.7V343Z" class="g1_1" />
<path d="M600.1,304.7v35.6m82.5,-35.6v35.6m46.8,-35.6v35.6M157.2,343v17.8M254.9,343v17.8M528.4,343v17.8M600.1,343v17.8M682.6,343v17.8M729.4,343v17.8m-572.2,0v134m97.7,-134v134m273.5,-134v134m71.7,-134v134m82.5,-134v134m46.8,-134v134" class="g0_1" />
<path d="M120.2,1012.9h2.7V168.1h-2.7v844.8Z" class="g1_1" />
<path d="M864.4,1012.9H867V170.7h-2.6v842.2Z" class="g1_1" />
<path d="M528.4,494.8V744.3m201,-249.5V840M157.2,494.8V744.3M254.9,494.8V840M600.1,494.8v515.4M682.6,494.8V744.3" class="g0_1" />
<path d="M122.9,170.7H867v-2.6H122.9v2.6Z" class="g1_1" />
<path d="M122.9,189.9H867v-2.7H122.9v2.7Z" class="g1_1" />
<path d="M529.8,207.7H864.4M529.8,226.8H864.4M529.8,246H864.4M529.8,265.1H864.4M529.8,284.2H864.4" class="g0_1" />
<path d="M122.9,304.7H867v-2.6H122.9v2.6Z" class="g1_1" />
<path d="M122.9,343H867v-2.7H122.9V343Z" class="g1_1" />
<path d="M122.9,743.6H864.4M600.7,762.7H864.4M600.7,781.9H864.4M600.7,801H864.4M600.7,820.2H864.4M122.9,839.3H864.4M122.9,858.4H864.4M122.9,877.6H600.7M122.9,896.7H600.7M122.9,915.9H864.4M122.9,935H600.7M122.9,954.1H600.7M122.9,973.3H600.7M122.9,992.4H864.4" class="g0_1" />
<path d="M122.9,1012.9H867v-2.7H122.9v2.7Z" class="g1_1" />
<image preserveAspectRatio="none" x="663" y="864" width="127" height="48" xlink:href="img/2.png" />
<image preserveAspectRatio="none" x="685" y="936" width="108" height="68" xlink:href="img/3.png" />
</svg>